<svg aria-roledescription="flowchart-v2" role="graphics-document document" viewBox="-8 -8 2066.3515625 399.2524719238281" height="399.2524719238281" xmlns="http://www.w3.org/2000/svg" width="2066.3515625" id="particoes-svg"><style>#particoes-svg{font-family:"trebuchet ms",verdana,arial,sans-serif;font-size:16px;fill:#333;}#particoes-svg .error-icon{fill:#552222;}#particoes-svg .error-text{fill:#552222;stroke:#552222;}#particoes-svg .edge-thickness-normal{stroke-width:2px;}#particoes-svg .edge-thickness-thick{stroke-width:3.5px;}#particoes-svg .edge-pattern-solid{stroke-dasharray:0;}#particoes-svg .edge-pattern-dashed{stroke-dasharray:3;}#particoes-svg .edge-pattern-dotted{stroke-dasharray:2;}#particoes-svg .marker{fill:#333333;stroke:#333333;}#particoes-svg .marker.cross{stroke:#333333;}#particoes-svg svg{font-family:"trebuchet ms",verdana,arial,sans-serif;font-size:16px;}#particoes-svg .label{font-family:"trebuchet ms",verdana,arial,sans-serif;color:#333;}#particoes-svg .cluster-label text{fill:#333;}#particoes-svg .cluster-label span,#particoes-svg p{color:#333;}#particoes-svg .label text,#particoes-svg span,#particoes-svg p{fill:#333;color:#333;}#particoes-svg .node rect,#particoes-svg .node circle,#particoes-svg .node ellipse,#particoes-svg .node polygon,#particoes-svg .node path{fill:#ECECFF;stroke:#9370DB;stroke-width:1px;}#particoes-svg .flowchart-label text{text-anchor:middle;}#particoes-svg .node .katex path{fill:#000;stroke:#000;stroke-width:1px;}#particoes-svg .node .label{text-align:center;}#particoes-svg .node.clickable{cursor:pointer;}#particoes-svg .arrowheadPath{fill:#333333;}#particoes-svg .edgePath .path{stroke:#333333;stroke-width:2.0px;}#particoes-svg .flowchart-link{stroke:#333333;fill:none;}#particoes-svg .edgeLabel{background-color:#e8e8e8;text-align:center;}#particoes-svg .edgeLabel rect{opacity:0.5;background-color:#e8e8e8;fill:#e8e8e8;}#particoes-svg .labelBkg{background-color:rgba(232, 232, 232, 0.5);}#particoes-svg .cluster rect{fill:#ffffde;stroke:#aaaa33;stroke-width:1px;}#particoes-svg .cluster text{fill:#333;}#particoes-svg .cluster span,#particoes-svg p{color:#333;}#particoes-svg div.mermaidTooltip{position:absolute;text-align:center;max-width:200px;padding:2px;font-family:"trebuchet ms",verdana,arial,sans-serif;font-size:12px;background:hsl(80, 100%, 96.2745098039%);border:1px solid #aaaa33;border-radius:2px;pointer-events:none;z-index:100;}#particoes-svg .flowchartTitleText{text-anchor:middle;font-size:18px;fill:#333;}#particoes-svg :root{--mermaid-font-family:"trebuchet ms",verdana,arial,sans-serif;}</style><g><marker orient="auto" markerHeight="12" markerWidth="12" markerUnits="userSpaceOnUse" refY="5" refX="6" viewBox="0 0 10 10" class="marker flowchart" id="particoes-svg_flowchart-pointEnd"><path style="stroke-width: 1; stroke-dasharray: 1, 0;" class="arrowMarkerPath" d="M 0 0 L 10 5 L 0 10 z"></path></marker><marker orient="auto" markerHeight="12" markerWidth="12" markerUnits="userSpaceOnUse" refY="5" refX="4.5" viewBox="0 0 10 10" class="marker flowchart" id="particoes-svg_flowchart-pointStart"><path style="stroke-width: 1; stroke-dasharray: 1, 0;" class="arrowMarkerPath" d="M 0 5 L 10 10 L 10 0 z"></path></marker><marker orient="auto" markerHeight="11" markerWidth="11" markerUnits="userSpaceOnUse" refY="5" refX="11" viewBox="0 0 10 10" class="marker flowchart" id="particoes-svg_flowchart-circleEnd"><circle style="stroke-width: 1; stroke-dasharray: 1, 0;" class="arrowMarkerPath" r="5" cy="5" cx="5"></circle></marker><marker orient="auto" markerHeight="11" markerWidth="11" markerUnits="userSpaceOnUse" refY="5" refX="-1" viewBox="0 0 10 10" class="marker flowchart" id="particoes-svg_flowchart-circleStart"><circle style="stroke-width: 1; stroke-dasharray: 1, 0;" class="arrowMarkerPath" r="5" cy="5" cx="5"></circle></marker><marker orient="auto" markerHeight="11" markerWidth="11" markerUnits="userSpaceOnUse" refY="5.2" refX="12" viewBox="0 0 11 11" class="marker cross flowchart" id="particoes-svg_flowchart-crossEnd"><path style="stroke-width: 2; stroke-dasharray: 1, 0;" class="arrowMarkerPath" d="M 1,1 l 9,9 M 10,1 l -9,9"></path></marker><marker orient="auto" markerHeight="11" markerWidth="11" markerUnits="userSpaceOnUse" refY="5.2" refX="-1" viewBox="0 0 11 11" class="marker cross flowchart" id="particoes-svg_flowchart-crossStart"><path style="stroke-width: 2; stroke-dasharray: 1, 0;" class="arrowMarkerPath" d="M 1,1 l 9,9 M 10,1 l -9,9"></path></marker><g class="root"><g class="clusters"><g id="PLANO" class="cluster default flowchart-label"><rect height="375.55037689208984" width="442.953125" y="0" x="1607.3984375" ry="0" rx="0" style="fill:#f4f4f4;stroke:#666;stroke-dasharray:6 4;"></rect><g transform="translate(1828.875, 0)" class="cluster-label"><text style=""><tspan class="row" x="0" dy="1em" xml:space="preserve">Planejado: controles e substituições ainda não implementados</tspan></text></g></g><g id="TB01" class="cluster default flowchart-label"><rect height="383.2524642944336" width="1012.59375" y="0" x="457.0625" ry="0" rx="0" style="fill:#eef5ff;stroke:#245b96;stroke-width:2px;stroke-dasharray:6 4;"></rect><g transform="translate(963.359375, 0)" class="cluster-label"><text style=""><tspan class="row" x="0" dy="1em" xml:space="preserve">Atual: um processo FastAPI - TB-01 exterior / aplicação</tspan></text></g></g></g><g class="edgePaths"><path marker-end="url(#particoes-svg_flowchart-pointEnd)" style="fill:none;" class="edge-thickness-normal edge-pattern-solid flowchart-link LS-P01 LE-P03" id="L-P01-P03-0" d="M639.566,190.5L658.606,199.148C677.645,207.796,715.725,225.092,748.67,237.491C781.615,249.89,809.426,257.392,823.332,261.144L837.237,264.895"></path><path marker-end="url(#particoes-svg_flowchart-pointEnd)" style="fill:none;" class="edge-thickness-normal edge-pattern-solid flowchart-link LS-P02 LE-P03" id="L-P02-P03-0" d="M663.438,298.835L678.499,300.491C693.56,302.148,723.682,305.462,748.634,306.088C773.587,306.714,793.369,304.652,803.259,303.621L813.15,302.59"></path><path marker-end="url(#particoes-svg_flowchart-pointEnd)" style="fill:none;" class="edge-thickness-normal edge-pattern-solid flowchart-link LS-P03 LE-D01" id="L-P03-D01-0" d="M1044.219,290.275L1061.14,290.275C1078.061,290.275,1111.904,290.275,1144.863,290.275C1177.822,290.275,1209.898,290.275,1225.936,290.275L1241.973,290.275"></path><path marker-end="url(#particoes-svg_flowchart-pointEnd)" style="fill:none;" class="edge-thickness-normal edge-pattern-solid flowchart-link LS-E01 LE-P01" id="L-E01-P01-0" d="M187.148,166L212.723,166C238.297,166,289.445,166,334.431,166C379.417,166,418.24,166,440.934,166C463.629,166,470.196,166,473.479,166L476.763,166"></path><path marker-end="url(#particoes-svg_flowchart-pointEnd)" style="fill:none;" class="edge-thickness-normal edge-pattern-solid flowchart-link LS-E02 LE-P02" id="L-E02-P02-0" d="M224.125,290.275L243.536,290.275C262.948,290.275,301.771,290.275,340.594,290.275C379.417,290.275,418.24,290.275,445.226,290.275C472.213,290.275,487.363,290.275,494.938,290.275L502.513,290.275"></path><path marker-end="url(#particoes-svg_flowchart-pointEnd)" style="fill:none;stroke-width:2px;stroke-dasharray:3;" class="edge-thickness-normal edge-pattern-dotted flowchart-link LS-P01 LE-ID" id="L-P01-ID-0" d="M620.993,141.5L643.128,126.167C665.264,110.833,709.534,80.167,761.255,64.833C812.977,49.5,872.148,49.5,937.472,49.5C1002.796,49.5,1074.271,49.5,1143.378,49.5C1212.486,49.5,1279.225,49.5,1333.21,49.5C1387.195,49.5,1428.426,49.5,1464.26,49.5C1500.094,49.5,1530.531,49.5,1560.969,49.5C1591.406,49.5,1621.844,49.5,1640.351,49.844C1658.858,50.189,1665.434,50.878,1668.722,51.222L1672.01,51.567"></path><path marker-end="url(#particoes-svg_flowchart-pointEnd)" style="fill:none;stroke-width:2px;stroke-dasharray:3;" class="edge-thickness-normal edge-pattern-dotted flowchart-link LS-P02 LE-ID" id="L-P02-ID-0" d="M606.672,266.275L631.194,238.313C655.716,210.35,704.76,154.425,758.869,126.463C812.977,98.5,872.148,98.5,937.472,98.5C1002.796,98.5,1074.271,98.5,1143.378,98.5C1212.486,98.5,1279.225,98.5,1333.21,98.5C1387.195,98.5,1428.426,98.5,1464.26,98.5C1500.094,98.5,1530.531,98.5,1560.969,98.5C1591.406,98.5,1621.844,98.5,1642.465,97.567C1663.085,96.634,1673.889,94.768,1679.291,93.835L1684.693,92.902"></path><path marker-end="url(#particoes-svg_flowchart-pointEnd)" style="fill:none;stroke-width:2px;stroke-dasharray:3;" class="edge-thickness-normal edge-pattern-dotted flowchart-link LS-P01 LE-MW" id="L-P01-MW-0" d="M689.188,166L699.957,166C710.727,166,732.266,166,772.621,166C812.977,166,872.148,166,937.472,166C1002.796,166,1074.271,166,1143.378,166C1212.486,166,1279.225,166,1333.21,166C1387.195,166,1428.426,166,1464.26,166C1500.094,166,1530.531,166,1560.969,166C1591.406,166,1621.844,166,1647.044,166C1672.244,166,1692.206,166,1702.188,166L1712.169,166"></path><path marker-end="url(#particoes-svg_flowchart-pointEnd)" style="fill:none;stroke-width:2px;stroke-dasharray:3;" class="edge-thickness-normal edge-pattern-dotted flowchart-link LS-D01 LE-DB" id="L-D01-DB-0" d="M1444.656,290.275L1448.823,290.275C1452.99,290.275,1461.323,290.275,1480.708,290.275C1500.094,290.275,1530.531,290.275,1560.969,290.275C1591.406,290.275,1621.844,290.275,1641.228,290.275C1660.612,290.275,1668.943,290.275,1673.109,290.275L1677.274,290.275"></path></g><g class="edgeLabels"><g transform="translate(753.8046875, 242.38759422302246)" class="edgeLabel"><g transform="translate(-39.6171875, -8.5)" class="label"><rect height="17.000104904174805" width="79.16633605957031" ry="0" rx="0"></rect><text style=""><tspan class="row" x="0" dy="1em" xml:space="preserve">F-03 / F-04</tspan></text></g></g><g transform="translate(753.8046875, 308.7751884460449)" class="edgeLabel"><g transform="translate(-39.6171875, -8.5)" class="label"><rect height="17.000104904174805" width="79.16633605957031" ry="0" rx="0"></rect><text style=""><tspan class="row" x="0" dy="1em" xml:space="preserve">F-07 / F-08</tspan></text></g></g><g transform="translate(1145.74609375, 290.2751884460449)" class="edgeLabel"><g transform="translate(-39.6171875, -8.5)" class="label"><rect height="17.000104904174805" width="79.16633605957031" ry="0" rx="0"></rect><text style=""><tspan class="row" x="0" dy="1em" xml:space="preserve">F-09 / F-10</tspan></text></g></g><g transform="translate(340.59375, 166)" class="edgeLabel"><g transform="translate(-90.9765625, -8.5)" class="label"><rect height="17.000104904174805" width="181.78237915039062" ry="0" rx="0"></rect><text style=""><tspan class="row" x="0" dy="1em" xml:space="preserve">F-01 / F-02 - HTTP JSON</tspan></text></g></g><g transform="translate(340.59375, 290.2751884460449)" class="edgeLabel"><g transform="translate(-91.46875, -8.5)" class="label"><rect height="17.000104904174805" width="182.768798828125" ry="0" rx="0"></rect><text style=""><tspan class="row" x="0" dy="1em" xml:space="preserve">F-05 / F-06 - HTTP HTML</tspan></text></g></g><g transform="translate(1145.74609375, 49.5)" class="edgeLabel"><g transform="translate(-48.96484375, -8.5)" class="label"><rect height="17.000104904174805" width="97.8435287475586" ry="0" rx="0"></rect><text style=""><tspan class="row" x="0" dy="1em" xml:space="preserve">Política futura</tspan></text></g></g><g transform="translate(1145.74609375, 98.5)" class="edgeLabel"><g transform="translate(-76.52734375, -8.5)" class="label"><rect height="17.000104904174805" width="152.91506958007812" ry="0" rx="0"></rect><text style=""><tspan class="row" x="0" dy="1em" xml:space="preserve">Mesma política futura</tspan></text></g></g><g transform="translate(1145.74609375, 166)" class="edgeLabel"><g transform="translate(-67.1953125, -8.5)" class="label"><rect height="17.000104904174805" width="134.26910400390625" ry="0" rx="0"></rect><text style=""><tspan class="row" x="0" dy="1em" xml:space="preserve">Composição futura</tspan></text></g></g><g transform="translate(1560.96875, 290.2751884460449)" class="edgeLabel"><g transform="translate(-66.3125, -8.5)" class="label"><rect height="17.000104904174805" width="132.5052032470703" ry="0" rx="0"></rect><text style=""><tspan class="row" x="0" dy="1em" xml:space="preserve">Substituição futura</tspan></text></g></g></g><g class="nodes"><g transform="translate(1828.875, 68)" data-id="ID" data-node="true" id="flowchart-ID-16" class="node default default flowchart-label"><rect height="48" width="303.1875" y="-24" x="-151.59375" ry="5" rx="5" style="" class="basic label-container"></rect><g transform="translate(0, -16.5)" style="" class="label"><rect></rect><text style=""><tspan class="row" x="0" dy="1em" xml:space="preserve">Identidade e autorização compartilhadas</tspan><tspan class="row" x="0" dy="1em" xml:space="preserve">Ex. 6 - CTRL-01 / CTRL-02</tspan></text></g></g><g transform="translate(1828.875, 166)" data-id="MW" data-node="true" id="flowchart-MW-17" class="node default default flowchart-label"><rect height="48" width="222.8125" y="-24" x="-111.40625" ry="5" rx="5" style="" class="basic label-container"></rect><g transform="translate(0, -16.5)" style="" class="label"><rect></rect><text style=""><tspan class="row" x="0" dy="1em" xml:space="preserve">Middleware JWT e hardening</tspan><tspan class="row" x="0" dy="1em" xml:space="preserve">Ex. 9 / 10</tspan></text></g></g><g transform="translate(1828.875, 290.2751884460449)" data-id="DB" data-node="true" id="flowchart-DB-18" class="node default default flowchart-label"><path transform="translate(-146.30078125,-50.27518567713692)" d="M 0,17.516790451424615 a 146.30078125,17.516790451424615 0,0,0 292.6015625 0 a 146.30078125,17.516790451424615 0,0,0 -292.6015625 0 l 0,65.51679045142461 a 146.30078125,17.516790451424615 0,0,0 292.6015625 0 l 0,-65.51679045142461" style=""></path><g transform="translate(0, -16.5)" style="" class="label"><rect></rect><text style=""><tspan class="row" x="0" dy="1em" xml:space="preserve">SQLModel relacional e sessão injetada</tspan><tspan class="row" x="0" dy="1em" xml:space="preserve">Ex. 11 - CTRL-08</tspan></text></g></g><g transform="translate(585.625, 166)" data-id="P01" data-node="true" id="flowchart-P01-2" class="node default default flowchart-label"><rect height="49" width="207.125" y="-24.5" x="-103.5625" ry="5" rx="5" style="" class="basic label-container"></rect><g transform="translate(0, -17)" style="" class="label"><rect></rect><text style=""><tspan class="row" x="0" dy="1em" xml:space="preserve">P-01 Rotas JSON</tspan><tspan class="row" x="0" dy="1em" xml:space="preserve">Entrada e response_model</tspan></text></g></g><g transform="translate(585.625, 290.2751884460449)" data-id="P02" data-node="true" id="flowchart-P02-3" class="node default default flowchart-label"><rect height="48" width="155.625" y="-24" x="-77.8125" ry="5" rx="5" style="" class="basic label-container"></rect><g transform="translate(0, -16.5)" style="" class="label"><rect></rect><text style=""><tspan class="row" x="0" dy="1em" xml:space="preserve">P-02 Agenda HTML</tspan><tspan class="row" x="0" dy="1em" xml:space="preserve">Projeção e Jinja2</tspan></text></g></g><g transform="translate(931.3203125, 290.2751884460449)" data-id="P03" data-node="true" id="flowchart-P03-4" class="node default default flowchart-label"><rect height="48" width="225.796875" y="-24" x="-112.8984375" ry="5" rx="5" style="" class="basic label-container"></rect><g transform="translate(0, -16.5)" style="" class="label"><rect></rect><text style=""><tspan class="row" x="0" dy="1em" xml:space="preserve">P-03 Operações de consultas</tspan><tspan class="row" x="0" dy="1em" xml:space="preserve">CRUD e filtro diário</tspan></text></g></g><g transform="translate(1345.96484375, 290.2751884460449)" data-id="D01" data-node="true" id="flowchart-D01-5" class="node default default flowchart-label"><path transform="translate(-98.69140625,-54.959832788077065)" d="M 0,15.306555192051377 a 98.69140625,15.306555192051377 0,0,0 197.3828125 0 a 98.69140625,15.306555192051377 0,0,0 -197.3828125 0 l 0,79.30655519205138 a 98.69140625,15.306555192051377 0,0,0 197.3828125 0 l 0,-79.30655519205138" style="fill:#fff4e5;stroke:#a56600;stroke-dasharray:4 4;"></path><g transform="translate(0, -24.5)" style="" class="label"><rect></rect><text style=""><tspan class="row" x="0" dy="1em" xml:space="preserve">D-01 Memória temporária</tspan><tspan class="row" x="0" dy="1em" xml:space="preserve">Entidades completas</tspan><tspan class="row" x="0" dy="1em" xml:space="preserve">TB-02: divulgação lógica</tspan></text></g></g><g transform="translate(112.0625, 166)" data-id="E01" data-node="true" id="flowchart-E01-0" class="node default default flowchart-label"><rect height="32" width="150.171875" y="-16" x="-75.0859375" ry="0" rx="0" style="" class="basic label-container"></rect><g transform="translate(0, -8.5)" style="" class="label"><rect></rect><text style=""><tspan class="row" x="0" dy="1em" xml:space="preserve">E-01 Cliente JSON</tspan></text></g></g><g transform="translate(112.0625, 290.2751884460449)" data-id="E02" data-node="true" id="flowchart-E02-1" class="node default default flowchart-label"><rect height="32" width="224.125" y="-16" x="-112.0625" ry="0" rx="0" style="" class="basic label-container"></rect><g transform="translate(0, -8.5)" style="" class="label"><rect></rect><text style=""><tspan class="row" x="0" dy="1em" xml:space="preserve">E-02 Navegador da recepção</tspan></text></g></g></g></g></g></svg>
